<svg width="27" height="31" viewBox="0 0 27 31" fill="none" xmlns="http://www.w3.org/2000/svg">
<path d="M20.6675 15.6017L12.215 24.0542C11.7224 24.5466 11.3728 25.1636 11.2035 25.8392L10.5473 28.4607C10.4825 28.7214 10.4864 28.9945 10.5583 29.2533C10.6303 29.5121 10.768 29.7479 10.9581 29.9378C11.1481 30.1276 11.384 30.2651 11.6429 30.3369C11.9018 30.4086 12.1748 30.4122 12.4355 30.3472L15.057 29.6927C15.7327 29.5237 16.3498 29.174 16.842 28.6812L25.2945 20.2287C25.9002 19.6133 26.2382 18.7834 26.2347 17.9198C26.2312 17.0563 25.8865 16.2292 25.2758 15.6187C24.6651 15.0082 23.8378 14.6638 22.9743 14.6607C22.1107 14.6575 21.281 14.9957 20.6658 15.6017H20.6675ZM5.25 1.5177C5.25 1.28564 5.15781 1.06308 4.99372 0.898982C4.82962 0.734888 4.60707 0.6427 4.375 0.6427C4.14294 0.6427 3.92038 0.734888 3.75628 0.898982C3.59219 1.06308 3.5 1.28564 3.5 1.5177V2.3927H2.625C1.92881 2.3927 1.26113 2.66926 0.768844 3.16155C0.276561 3.65383 0 4.32151 0 5.0177V26.0177C0 26.7139 0.276561 27.3816 0.768844 27.8739C1.26113 28.3661 1.92881 28.6427 2.625 28.6427H8.75525C8.7675 28.4432 8.799 28.2402 8.84975 28.0355L9.506 25.414C9.75097 24.4303 10.2591 23.5319 10.976 22.8152L19.4285 14.3627C19.8794 13.9107 20.4129 13.5495 21 13.2987V5.0177C21 4.32151 20.7234 3.65383 20.2312 3.16155C19.7389 2.66926 19.0712 2.3927 18.375 2.3927H17.5V1.5177C17.5 1.28564 17.4078 1.06308 17.2437 0.898982C17.0796 0.734888 16.8571 0.6427 16.625 0.6427C16.3929 0.6427 16.1704 0.734888 16.0063 0.898982C15.8422 1.06308 15.75 1.28564 15.75 1.5177V2.3927H11.375V1.5177C11.375 1.28564 11.2828 1.06308 11.1187 0.898982C10.9546 0.734888 10.7321 0.6427 10.5 0.6427C10.2679 0.6427 10.0454 0.734888 9.88128 0.898982C9.71719 1.06308 9.625 1.28564 9.625 1.5177V2.3927H5.25V1.5177ZM6.125 9.3927H14.875C15.1071 9.3927 15.3296 9.48489 15.4937 9.64898C15.6578 9.81308 15.75 10.0356 15.75 10.2677C15.75 10.4998 15.6578 10.7223 15.4937 10.8864C15.3296 11.0505 15.1071 11.1427 14.875 11.1427H6.125C5.89294 11.1427 5.67038 11.0505 5.50628 10.8864C5.34219 10.7223 5.25 10.4998 5.25 10.2677C5.25 10.0356 5.34219 9.81308 5.50628 9.64898C5.67038 9.48489 5.89294 9.3927 6.125 9.3927ZM15.75 15.5177C15.75 15.7498 15.6578 15.9723 15.4937 16.1364C15.3296 16.3005 15.1071 16.3927 14.875 16.3927H6.125C5.89294 16.3927 5.67038 16.3005 5.50628 16.1364C5.34219 15.9723 5.25 15.7498 5.25 15.5177C5.25 15.2856 5.34219 15.0631 5.50628 14.899C5.67038 14.7349 5.89294 14.6427 6.125 14.6427H14.875C15.1071 14.6427 15.3296 14.7349 15.4937 14.899C15.6578 15.0631 15.75 15.2856 15.75 15.5177ZM6.125 19.8927H9.625C9.85707 19.8927 10.0796 19.9849 10.2437 20.149C10.4078 20.3131 10.5 20.5356 10.5 20.7677C10.5 20.9998 10.4078 21.2223 10.2437 21.3864C10.0796 21.5505 9.85707 21.6427 9.625 21.6427H6.125C5.89294 21.6427 5.67038 21.5505 5.50628 21.3864C5.34219 21.2223 5.25 20.9998 5.25 20.7677C5.25 20.5356 5.34219 20.3131 5.50628 20.149C5.67038 19.9849 5.89294 19.8927 6.125 19.8927Z" fill="white"/>
</svg>
